<svg xmlns="http://www.w3.org/2000/svg" viewBox="0 0 320 98.90481303688732" height="98.90481303688732" width="320" style="width: 320px; height: 98.9048px; position: absolute; top: 50%; left: 50%; transform: translate(-50%, -50%) scale(0.391875); z-index: 0; cursor: pointer;"><defs id="SvgjsDefs2494"/><g id="SvgjsG2495" featurekey="symbolFeature-0" transform="matrix(1.1827040910720825,0,0,1.1827040910720825,-7.050099143687288,-9.861386071609038)" fill="#ff7a8a"><g xmlns="http://www.w3.org/2000/svg"><g><path d="M47.507,51.654c1.863-4.457,3.703-8.915,5.446-13.182c-0.177-0.081-0.356-0.153-0.529-0.24    c-3.256-1.58-6.345-3.333-9.209-5.205c-2.544,4.076-4.751,8.32-6.586,12.702c3.039,1.917,6.282,3.738,9.699,5.39    C46.718,51.309,47.114,51.472,47.507,51.654z"/><path d="M25.386,37.239c2.162-4.304,4.856-8.313,8-11.953c-1.945-1.868-3.665-3.774-5.078-5.681    c-3.637,3.081-6.771,6.732-9.276,10.806C20.792,32.705,22.927,34.995,25.386,37.239z"/><path d="M49.598,52.607c3.322,1.463,6.667,2.728,9.967,3.761c1.883-4.333,3.418-8.851,4.606-13.512    c-3.014-0.922-6.072-2.073-9.128-3.429C53.296,43.704,51.456,48.162,49.598,52.607z"/><path d="M84.214,45.424c-1.091,0.111-2.221,0.19-3.419,0.19c0,0,0,0-0.002,0c-1.421,0-2.9-0.102-4.404-0.248    c-0.602,4.763-1.781,9.44-3.527,13.926c2.138,0.257,4.221,0.423,6.182,0.423c1.094,0,2.135-0.052,3.143-0.137    C83.611,54.989,84.295,50.204,84.214,45.424z"/><path d="M84.65,59.284c1.438-0.229,2.783-0.543,3.993-0.965c0.429-0.145,0.827-0.31,1.219-0.482    c0.42-2.395,0.651-4.854,0.651-7.362c0-2.139-0.164-4.24-0.468-6.293c-1.093,0.394-2.289,0.688-3.557,0.927    C86.599,49.883,85.983,54.673,84.65,59.284z"/><path d="M61.727,56.997c3.015,0.855,5.973,1.525,8.823,1.976c1.787-4.456,3-9.105,3.597-13.848    c-2.534-0.354-5.158-0.922-7.824-1.646C65.136,48.138,63.593,52.652,61.727,56.997z"/><path d="M41.37,31.784c-2.298-1.598-4.42-3.271-6.351-4.993c-3.135,3.639-5.778,7.667-7.887,11.993    c2.309,1.963,4.859,3.882,7.604,5.713C36.6,40.114,38.813,35.863,41.37,31.784z"/><path d="M27.014,17.722c-0.611-0.947-1.154-1.893-1.609-2.829c-3.896,2.505-7.358,5.631-10.237,9.245    c0.632,1.41,1.458,2.84,2.426,4.279C20.173,24.392,23.359,20.789,27.014,17.722z"/><path d="M53.783,10.123c-0.384-0.282-0.758-0.569-1.132-0.855c-3.312,0.328-6.522,1.011-9.587,2.031    c0.961,0.988,2.001,1.96,3.117,2.916C48.592,12.678,51.129,11.306,53.783,10.123z"/><path d="M76.078,28.577c1.659,0.313,3.257,0.506,4.806,0.631c-1.25-3.049-2.862-5.986-4.819-8.746    c-0.703-0.177-1.402-0.354-2.111-0.558C74.888,22.762,75.599,25.658,76.078,28.577z"/><path d="M84.838,29.333c-1.287-2.226-2.771-4.317-4.427-6.262c1.15,2.024,2.139,4.109,2.961,6.25    C83.864,29.327,84.367,29.35,84.838,29.333z"/><path d="M53.512,19.56c1.844,1.148,3.776,2.23,5.783,3.234c1.167-2.916,2.187-5.473,2.998-7.517    c-0.997-0.506-1.971-1.028-2.928-1.577C57.309,15.572,55.373,17.536,53.512,19.56z"/><path d="M40.846,8.849c0.171,0.209,0.371,0.418,0.553,0.627c1.191-0.427,2.4-0.813,3.638-1.138    C43.622,8.448,42.22,8.608,40.846,8.849z"/><path d="M66.842,26.026c0.194-2.814,0.289-5.654,0.238-8.521c-0.914-0.38-1.819-0.798-2.721-1.217    c-0.839,2.114-1.842,4.637-2.987,7.49C63.188,24.611,65.014,25.37,66.842,26.026z"/><path d="M51.598,18.337c1.83-2.005,3.751-3.945,5.769-5.811c-0.474-0.296-0.922-0.602-1.385-0.903    c-2.792,1.16-5.453,2.527-7.972,4.083C49.153,16.604,50.338,17.489,51.598,18.337z"/><path d="M69.025,26.755c1.563,0.505,3.109,0.935,4.637,1.296c-0.556-3.026-1.354-6.028-2.418-8.983    c-0.644-0.217-1.288-0.474-1.932-0.711C69.337,21.184,69.232,23.984,69.025,26.755z"/><path d="M49.932,20.192c-1.437-0.978-2.789-1.993-4.085-3.04c-3.347,2.294-6.418,4.914-9.165,7.831    c1.829,1.623,3.843,3.207,6.025,4.729C44.897,26.414,47.303,23.232,49.932,20.192z"/><path d="M38.119,9.421c-3.747,0.919-7.297,2.34-10.578,4.185c0.398,0.85,0.881,1.705,1.417,2.564    c3.059-2.305,6.41-4.246,9.988-5.75C38.673,10.086,38.374,9.756,38.119,9.421z"/><path d="M89.607,41.754c-0.741-3.534-1.927-6.899-3.488-10.052c-0.607,0.05-1.239,0.065-1.87,0.083    c1.143,3.546,1.853,7.204,2.128,10.877C87.541,42.429,88.632,42.139,89.607,41.754z"/><path d="M74.101,30.7c-1.73-0.37-3.489-0.825-5.271-1.379c-0.398,3.991-1.07,7.903-1.941,11.739    c2.57,0.705,5.088,1.254,7.504,1.612C74.713,38.704,74.637,34.694,74.101,30.7z"/><path d="M53.503,35.998c0.131,0.063,0.258,0.115,0.388,0.175c1.614-3.965,3.128-7.707,4.479-11.069    c-2.283-1.132-4.469-2.369-6.546-3.681c-2.647,3.04-5.056,6.235-7.25,9.543C47.347,32.769,50.341,34.469,53.503,35.998z"/><path d="M64.737,40.431c0.876-3.865,1.517-7.818,1.901-11.845c-2.058-0.72-4.128-1.554-6.189-2.5    c-1.362,3.382-2.868,7.11-4.467,11.042C58.897,38.424,61.834,39.537,64.737,40.431z"/><path d="M76.634,42.928c1.457,0.149,2.878,0.251,4.23,0.251c1.146,0,2.211-0.075,3.235-0.18    c-0.268-3.812-1.029-7.598-2.273-11.258c-1.746-0.084-3.554-0.284-5.413-0.6C76.882,35.074,76.961,39.022,76.634,42.928z"/><path d="M35.011,23.441c2.715-2.886,5.731-5.502,9.014-7.81c-1.267-1.11-2.432-2.244-3.498-3.394    c-3.7,1.49-7.156,3.454-10.291,5.829C31.556,19.864,33.172,21.667,35.011,23.441z"/><path d="M69.202,14.074c0.026,0.548,0.023,1.085,0.04,1.631c0.262,0.099,0.519,0.198,0.779,0.298    C69.744,15.361,69.504,14.71,69.202,14.074z"/><path d="M72.594,16.137c0.118,0.286,0.203,0.583,0.314,0.869c0.2,0.065,0.404,0.123,0.605,0.186    C73.211,16.838,72.913,16.484,72.594,16.137z"/><path d="M60.049,10.1c-0.387,0.126-0.755,0.287-1.142,0.425c0.135,0.083,0.264,0.169,0.397,0.248    C59.557,10.551,59.795,10.32,60.049,10.1z"/><path d="M63.212,12.946c0.27-0.676,0.51-1.283,0.692-1.747c-0.384-0.151-0.781-0.284-1.17-0.422    c-0.468,0.391-0.916,0.796-1.375,1.189C61.969,12.304,62.588,12.629,63.212,12.946z"/><path d="M66.963,14.763c-0.033-0.742-0.052-1.484-0.101-2.229c-0.284-0.138-0.565-0.282-0.851-0.415    c-0.22,0.549-0.459,1.159-0.742,1.868C65.833,14.254,66.399,14.519,66.963,14.763z"/><path d="M55.323,69.153c2.913,0.827,5.767,1.472,8.529,1.926c2.249-3.088,4.169-6.359,5.723-9.77    c-2.879-0.483-5.85-1.166-8.875-2.039C59.116,62.691,57.321,65.991,55.323,69.153z"/><path d="M13.5,26.374c-2.03,2.915-3.709,6.101-4.958,9.49c0.792,1.856,1.895,3.751,3.258,5.655    c1.026-3.802,2.51-7.422,4.408-10.789C15.16,29.268,14.239,27.81,13.5,26.374z"/><path d="M20.555,50.816c0.865-3.903,2.133-7.666,3.745-11.264c-2.51-2.243-4.722-4.542-6.587-6.854    c-1.854,3.454-3.251,7.186-4.138,11.101C15.532,46.167,17.876,48.518,20.555,50.816z"/><path d="M71.864,61.666c-1.502,3.401-3.341,6.67-5.5,9.773c2.176,0.265,4.287,0.434,6.278,0.434c1.285,0,2.486-0.079,3.652-0.189    c2.087-3.009,3.763-6.224,5.027-9.567c-0.737,0.036-1.479,0.073-2.257,0.073C76.785,62.189,74.363,61.997,71.864,61.666z"/><path d="M33.784,46.821c-2.767-1.83-5.356-3.755-7.721-5.732c-1.565,3.615-2.741,7.428-3.522,11.365    c2.369,1.89,4.955,3.716,7.722,5.459C31.194,54.146,32.368,50.44,33.784,46.821z"/><path d="M82.235,70.478c1.695-0.59,3.132-1.363,4.28-2.286l0.081,0.06c1.11-2.402,2.009-4.912,2.66-7.534    c-1.63,0.556-3.46,0.932-5.435,1.174c-1.147,3.249-2.658,6.389-4.528,9.354C80.329,71.038,81.327,70.793,82.235,70.478z"/><path d="M45.252,53.35c-3.341-1.62-6.524-3.394-9.526-5.28c-1.396,3.619-2.568,7.311-3.46,11.076    c2.436,1.455,4.986,2.841,7.645,4.127c0.739,0.359,1.491,0.681,2.234,1.019c1.45-3.36,2.929-6.839,4.404-10.353    C46.118,53.736,45.682,53.556,45.252,53.35z"/><path d="M44.241,65.243c2.95,1.254,5.913,2.344,8.842,3.262c2.028-3.151,3.827-6.452,5.428-9.87    c-3.278-1.032-6.587-2.3-9.869-3.744C47.167,58.403,45.689,61.886,44.241,65.243z"/><path d="M36.105,90.58c0.64,0.049,1.274,0.115,1.911,0.135c0.052-0.014,0.1-0.039,0.147-0.058    c-0.495-0.177-0.992-0.352-1.488-0.541C36.484,90.268,36.305,90.425,36.105,90.58z"/><path d="M25.727,84.974c0.068,0.161,0.129,0.326,0.197,0.489c0.708,0.691,1.434,1.356,2.184,1.995l-0.082,0.116    c0.041,0.024,0.083,0.043,0.123,0.068c-0.049-0.479-0.1-0.955-0.14-1.427C27.239,85.81,26.48,85.396,25.727,84.974z"/><path d="M33.336,88.766c-0.198,0.366-0.388,0.711-0.575,1.043c0.142,0.056,0.271,0.122,0.408,0.178    c0.377-0.282,0.727-0.56,1.084-0.833C33.944,89.021,33.641,88.896,33.336,88.766z"/><path d="M30.401,87.433c0.05,0.474,0.095,0.942,0.155,1.428c0.023,0.011,0.056,0.022,0.083,0.034    c0.192-0.335,0.395-0.707,0.597-1.084C30.96,87.68,30.679,87.563,30.401,87.433z"/><path d="M46.176,81.126c2.078,0.681,4.131,1.247,6.154,1.731c1.647-1.251,3.237-2.588,4.755-4.032    c1.837-1.738,3.506-3.606,5.065-5.537c-2.681-0.49-5.438-1.149-8.232-1.969C51.582,74.776,49.001,78.052,46.176,81.126z"/><path d="M36.401,77.243c1.497-3.256,3.103-6.864,4.759-10.677c-0.774-0.353-1.553-0.685-2.322-1.057    c-2.457-1.193-4.828-2.472-7.109-3.814c-0.833,4.052-1.398,8.163-1.626,12.323c1.655,0.938,3.37,1.839,5.129,2.691    C35.62,76.899,36.011,77.063,36.401,77.243z"/><path d="M72.646,74.343c-2.504,0-5.163-0.206-7.927-0.612c-1.831,2.375-3.852,4.628-6.077,6.741    c-1.109,1.05-2.256,2.053-3.438,3.011c2.577,0.496,5.064,0.802,7.422,0.929c2.77-1.659,5.391-3.604,7.78-5.863    c1.418-1.351,2.718-2.777,3.918-4.26c-0.556,0.02-1.1,0.054-1.675,0.054C72.65,74.343,72.65,74.343,72.646,74.343z"/><path d="M19.283,66.719c-0.062-1.087-0.122-2.175-0.122-3.271c0-3.368,0.317-6.672,0.868-9.91c-2.637-2.194-5-4.453-7.04-6.741    c-0.342,2.221-0.525,4.488-0.525,6.795c0,2.509,0.212,4.996,0.625,7.424C14.887,62.953,16.975,64.859,19.283,66.719z"/><path d="M71.96,80.185c-1.637,1.551-3.371,2.969-5.186,4.254c2.55-0.133,4.828-0.529,6.764-1.2c0.936-0.329,1.797-0.727,2.56-1.18    l0.09,0.126c3.249-2.87,6.062-6.222,8.304-9.959c-0.468,0.207-0.938,0.416-1.444,0.59c-1.697,0.587-3.611,0.99-5.681,1.239    C75.768,76.217,73.973,78.276,71.96,80.185z"/><path d="M22.054,55.161c-0.399,2.716-0.628,5.477-0.628,8.288c0,1.713,0.084,3.413,0.242,5.107c1.958,1.448,4.05,2.849,6.26,4.187    c0.288-4.15,0.87-8.256,1.743-12.299C26.97,58.764,24.417,56.997,22.054,55.161z"/><path d="M11.084,44.555c-1.421-1.789-2.632-3.588-3.603-5.362c-0.943,3.41-1.472,6.993-1.52,10.687l0.136-0.015l0.064,0.22    c0.058,0.202,0.118,0.404,0.188,0.614c0.804,2.308,2.195,4.719,4.047,7.143c-0.122-1.405-0.197-2.818-0.197-4.248    C10.2,50.511,10.504,47.489,11.084,44.555z"/><path d="M43.255,67.514c-1.659,3.816-3.265,7.42-4.764,10.68c1.785,0.779,3.569,1.485,5.355,2.127    c2.848-3.023,5.434-6.266,7.785-9.682C48.847,69.744,46.042,68.704,43.255,67.514z"/><path d="M6.357,56.307c0.699,5.074,2.293,9.863,4.627,14.194l0.134-0.092c1.18,1.379,2.525,2.745,4.006,4.075    c-1.908-3.801-3.285-7.848-4.087-12.056C9.179,60.398,7.6,58.346,6.357,56.307z"/><path d="M44.888,90.143c0.239,0.066,0.473,0.115,0.709,0.178c4.571-0.602,8.97-1.868,13.07-3.784    c-1.969-0.253-4.001-0.617-6.074-1.085C50.153,87.213,47.58,88.785,44.888,90.143z"/><path d="M34.482,86.567c0.655,0.285,1.312,0.532,1.965,0.796c1.341-1.148,2.683-2.381,4.26-3.88    c0.416-0.393,0.8-0.814,1.209-1.219c-1.492-0.558-2.982-1.172-4.464-1.82C36.387,82.723,35.391,84.776,34.482,86.567z"/><path d="M27.702,78.681c0-1.051,0.053-2.092,0.089-3.14c-2.003-1.166-3.914-2.391-5.736-3.661    c0.486,3.201,1.262,6.345,2.297,9.418c1.126,0.693,2.277,1.37,3.466,2.016C27.744,81.827,27.702,80.305,27.702,78.681z"/><path d="M44.287,83.09c-0.669,0.68-1.324,1.371-2.016,2.03c-1.175,1.115-2.285,2.148-3.419,3.149    c0.929,0.34,1.856,0.658,2.778,0.945c2.81-1.268,5.49-2.762,8.036-4.468C47.89,84.272,46.092,83.706,44.287,83.09z"/><path d="M14.12,65.529c1.284,4.606,3.306,8.983,6.017,12.974c0.417,0.302,0.853,0.597,1.282,0.89    c-0.869-3.047-1.481-6.154-1.841-9.302C17.617,68.61,15.787,67.08,14.12,65.529z"/><path d="M56.367,91.834l0.012,0.13c5-0.973,9.684-2.825,13.884-5.396c-1.663,0.262-3.45,0.406-5.376,0.406    c-0.641,0-1.316-0.049-1.979-0.076c-3.535,2.008-7.317,3.541-11.253,4.569C53.289,91.676,54.875,91.818,56.367,91.834z"/><path d="M34.15,78.944c-1.409-0.687-2.784-1.402-4.131-2.14c-0.013,0.627-0.054,1.248-0.054,1.877c0,2.067,0.067,3.971,0.188,5.85    c0.376,0.19,0.745,0.389,1.125,0.574c0.366,0.18,0.74,0.334,1.11,0.508c0.908-1.78,1.905-3.841,2.972-6.122    C34.956,79.305,34.551,79.136,34.15,78.944z"/></g></g></g><g id="SvgjsG2496" featurekey="nameFeature-0" transform="matrix(0.5857544541358948,0,0,0.5857544541358948,120.04686031111412,31.244612924423052)" fill="#ffffff"><path d="M21.72 20.92 c-0.4 -2.72 -0.92 -3.6 -2.76 -3.6 l-8.76 0 l0 9 l6.48 0 c2.2 0 3 -0.76 3 -2.88 l1.6 0 l0 7.96 l-1.6 0 c0 -2.16 -0.52 -2.88 -3.6 -2.88 l-5.88 0 l0 7.2 c0 1.72 0.32 2.08 1.48 2.08 l6.68 0 c2.6 0 3.84 -0.72 4.6 -4.08 l1.52 0 l-0.48 6.28 l-24.08 0 l0 -1.56 l1.64 0 c2.32 0 3.12 -0.92 3.12 -2.88 l0 -15.96 c0 -2.16 -0.72 -2.92 -3.48 -2.92 l-0.4 0 l0 -1.56 l22.04 0 l0.4 5.8 l-1.52 0 z M43.68 37.04 l0.6 0.96 c-1.24 1.36 -3.24 2.4 -4.56 2.4 c-1.48 0 -2.56 -0.96 -2.8 -2.48 c-1.6 1.56 -2.68 2.52 -4.92 2.52 c-2.84 0 -4.64 -1.64 -4.64 -4.2 c0 -1.28 0.56 -2.52 1.24 -3.2 c1.88 -1.88 5.12 -1.48 8.24 -4.04 l0 -1.48 c0 -1.56 -1.08 -2.68 -2.52 -2.68 c-1.4 0 -2.4 1 -2.08 3.08 l-4.48 1.56 c-0.36 -1.64 -0.2 -2.8 0.84 -3.84 c1.36 -1.36 4.64 -2.4 6.6 -2.4 s6.52 1.12 6.52 4.88 l0 7.56 c0 1.4 0.28 1.84 0.88 1.84 c0.32 0 0.52 -0.08 1.08 -0.48 z M36.84 36.52 l0 -5.72 c-1.92 1.68 -4.68 1.4 -4.68 4.64 c0 1.68 0.8 2.76 2 2.76 c0.68 0 1.52 -0.56 2.68 -1.68 z M57 38.72 l0 1.28 l-11.12 0 l0 -1.28 l0.28 0 c1.64 0 2.24 -0.72 2.24 -2.8 l0 -6.52 c0 -1.8 -0.24 -2.2 -1.44 -2.68 l-1.08 -0.44 l0 -1 l6.56 -2.48 l0.84 0 l0 4.48 l0.08 0 c1.48 -2.88 2.12 -4.04 3.48 -4.04 c0.28 0 0.6 0.04 0.8 0.12 l3.16 1.16 c-0.48 1.68 -1.12 3.12 -1.92 4.24 c-1.24 -0.48 -2.72 -1 -3.24 -1 c-0.8 0 -1.48 0.56 -2.36 1.8 l0 6.48 c0 1.92 0.6 2.68 2.68 2.68 l1.04 0 z M68.8 25.880000000000003 l0 9.68 c0 1.48 0.68 2.12 1.84 2.12 c0.96 0 1.88 -0.6 3.04 -2 l0.56 1.12 c-1.2 2.16 -3.6 3.64 -5.8 3.64 c-2.72 0 -4.52 -1.52 -4.52 -4.96 l0 -9.6 l-2.12 0 l0 -1.04 c2.4 -1 5.12 -3.92 5.84 -6.16 l1.16 0 l0 5 l5.24 0 l-0.6 2.2 l-4.64 0 z M82.60000000000001 27.759999999999998 l0 8.2 c0 2.52 0.68 2.76 2.08 2.76 l0.4 0 l0 1.28 l-10.12 0 l0 -1.28 l0.56 0 c2.04 0 2.2 -0.8 2.2 -2.92 l0 -17.48 c0 -1.16 -0.2 -1.44 -1.28 -1.8 l-1.16 -0.4 l0 -0.92 l6.36 -1.96 l0.96 0 l0 13.04 c2.24 -1.56 5.12 -3.04 7.2 -3.04 c2.92 0 4.36 2.36 4.36 7.08 l0 5.28 c0 2.36 0.28 3.12 1.8 3.12 l0.4 0 l0 1.28 l-9.44 0 l0 -1.28 l0.32 0 c1.68 0 2.04 -0.64 2.04 -2.92 l0 -6.04 c0 -2.16 -1 -3.52 -2.6 -3.52 c-1.08 0 -2.68 0.6 -4.08 1.52 z M111.96000000000001 45 l0 -7.96 c-2.36 2.24 -4.36 3.4 -6.52 3.4 c-3.72 0 -6.56 -3.28 -6.56 -7.6 c0 -5.44 4.24 -9.6 9.76 -9.6 c2.04 0 4.16 0.6 5.88 1.6 l1.72 -1.6 l0.96 0 c-0.2 1.44 -0.36 3.32 -0.36 4.88 l0 17 c0 1.72 0.36 2.56 2.4 2.72 l0 1.24 l-11.32 0 l0 -1.24 l1.56 0 c2 0 2.48 -0.76 2.48 -2.84 z M111.96000000000001 35.28 l0 -5.6 c0 -3 -1.24 -4.72 -3.48 -4.72 c-2.84 0 -4.6 2.36 -4.6 6.16 c0 3.6 1.88 6.16 4.52 6.16 c1.28 0 2.12 -0.44 3.56 -2 z M134.56 40.44 l0 -3.2 c-3.64 2.32 -5.64 3.2 -7.16 3.2 c-2.92 0 -4.36 -2.6 -4.36 -5.48 l0 -6.68 c0 -1.56 -0.16 -1.92 -0.84 -2.24 l-0.84 -0.4 l0 -0.92 l5.76 -1.48 l0.8 0 l0 10.2 c0 2.4 0.8 3.96 2.6 3.96 c0.96 0 2.36 -0.56 4.04 -1.64 l0 -7.24 c0 -1.56 -0.24 -1.96 -1.44 -2.32 l-1.84 -0.56 l0 -0.92 l7.36 -1.48 l0.8 0 l0 12.24 c0 2 0.2 2.4 1.16 2.4 c0.36 0 0.68 -0.04 1.2 -0.24 l0 1.24 l-6.48 1.56 l-0.76 0 z M160.8 37.04 l0.6 0.96 c-1.24 1.36 -3.24 2.4 -4.56 2.4 c-1.48 0 -2.56 -0.96 -2.8 -2.48 c-1.6 1.56 -2.68 2.52 -4.92 2.52 c-2.84 0 -4.64 -1.64 -4.64 -4.2 c0 -1.28 0.56 -2.52 1.24 -3.2 c1.88 -1.88 5.12 -1.48 8.24 -4.04 l0 -1.48 c0 -1.56 -1.08 -2.68 -2.52 -2.68 c-1.4 0 -2.4 1 -2.08 3.08 l-4.48 1.56 c-0.36 -1.64 -0.2 -2.8 0.84 -3.84 c1.36 -1.36 4.64 -2.4 6.6 -2.4 s6.52 1.12 6.52 4.88 l0 7.56 c0 1.4 0.28 1.84 0.88 1.84 c0.32 0 0.52 -0.08 1.08 -0.48 z M153.96 36.52 l0 -5.72 c-1.92 1.68 -4.68 1.4 -4.68 4.64 c0 1.68 0.8 2.76 2 2.76 c0.68 0 1.52 -0.56 2.68 -1.68 z M174.52 29.28 l5.8 7.24 c1.32 1.64 2.08 2.2 3.08 2.2 l0.36 0 l0 1.28 l-9.24 0 l0 -1.28 c1.2 0 1.16 -0.52 0.56 -1.28 l-4.96 -6.44 l-0.08 0 l0 5.04 c0 1.72 0.48 2.68 2.36 2.68 l0 1.28 l-9.68 0 l0 -1.28 c1.84 0 2.44 -0.64 2.44 -2.8 l0 -17.6 c0 -1.16 -0.2 -1.44 -1.28 -1.8 l-1.16 -0.4 l0 -0.92 l6.36 -1.96 l0.96 0 l0 17.4 l5.6 -4.68 c0.44 -0.4 0.52 -1 -0.68 -1 l-0.96 0 l0 -1.28 l8.28 0 l0 1.28 c-2 0 -3.44 0.68 -5.24 2.2 z  M200.44 34.6 l0.92 0.76 c-2.24 3.16 -5.48 5.08 -8.56 5.08 c-4.36 0 -7.32 -3.36 -7.32 -8.2 c0 -5.28 3.56 -9 8.56 -9 c2.12 0 3.8 0.68 5.04 1.92 c2.36 2.36 1.24 4.6 2.64 5.32 l0 1.16 l-11.08 0 c0.32 3.32 2.56 5.84 4.92 5.84 c1.48 0 2.92 -0.84 4.88 -2.88 z M190.52 30.08 l5.68 0 c-0.04 -3.08 -1.12 -4.96 -2.84 -4.96 c-1.64 0 -3.12 2.12 -2.84 4.96 z M226.32 29.439999999999998 l0 6.08 c0 2.04 0.88 2.92 3.16 2.92 l1.2 0 l0 1.56 l-14 0 l0 -1.56 l0.64 0 c2.44 0 3.48 -0.6 3.48 -2.92 l0 -15.8 c0 -1.92 -0.52 -3.04 -3.2 -3.04 l-0.84 0 l0 -1.56 c2 -0.12 3.52 -0.2 5.16 -0.32 c2.24 -0.16 5.12 -0.28 6.56 -0.28 c5.88 0 9.08 0.76 11.08 2.76 c1.32 1.32 1.92 2.84 1.92 4.56 c0 3.04 -2.2 5.44 -5.92 6.44 c2.64 2.2 4.04 5.36 6.88 8.2 c1.64 1.64 2.76 2.12 5.28 2.36 l0 1.56 c-0.88 0.04 -1.28 0.04 -2.48 0.04 c-4.96 0 -7 -0.72 -8.88 -2.6 c-2 -2 -4.32 -6.2 -6.88 -8.4 l-3.16 0 z M226.32 16.24 l0 11.52 l1.56 0 c4.84 0 7.64 -1.48 7.64 -5.76 c0 -4.24 -3.24 -5.76 -7.12 -5.76 l-2.08 0 z M263.76 34.6 l0.92 0.76 c-2.24 3.16 -5.48 5.08 -8.56 5.08 c-4.36 0 -7.32 -3.36 -7.32 -8.2 c0 -5.28 3.56 -9 8.56 -9 c2.12 0 3.8 0.68 5.04 1.92 c2.36 2.36 1.24 4.6 2.64 5.32 l0 1.16 l-11.08 0 c0.32 3.32 2.56 5.84 4.92 5.84 c1.48 0 2.92 -0.84 4.88 -2.88 z M253.84 30.08 l5.68 0 c-0.04 -3.08 -1.12 -4.96 -2.84 -4.96 c-1.64 0 -3.12 2.12 -2.84 4.96 z M274.32000000000005 39.92 l0 4.28 c0 2.64 0.68 3.44 3.96 3.64 l0 1.24 l-11.48 0 l0 -1.24 l0.48 0 c1.56 0 2.16 -0.72 2.16 -2.64 l0 -16.8 c0 -1.12 -0.32 -1.64 -1.08 -1.92 l-1.48 -0.52 l0 -1 l6.4 -2.16 l1.04 0 l0 3.84 c2.28 -1.8 4.04 -3.4 6.68 -3.4 c3.68 0 6.52 3.28 6.52 7.56 c0 4.44 -3 9.64 -9.12 9.64 c-1.24 0 -2.48 -0.16 -4.08 -0.52 z M274.32000000000005 28.28 l0 8.72 c1.16 1.2 2.72 1.96 4.12 1.96 c2.44 0 4.16 -2.4 4.16 -5.88 c0 -3.56 -1.48 -6.84 -4.36 -6.84 c-1.12 0 -2.36 0.64 -3.92 2.04 z M290.9200000000001 32.08 c0 -5.04 4.32 -8.84 10.04 -8.84 c5.48 0 9.44 3.48 9.44 8.32 c0 5.08 -4.32 8.88 -10.04 8.88 c-5.52 0 -9.44 -3.48 -9.44 -8.36 z M296.20000000000005 29.72 c0 3.36 1.44 9 5.28 9 c2.32 0 3.64 -1.8 3.64 -4.96 c0 -5.12 -2.16 -8.8 -5.2 -8.8 c-2.36 0 -3.72 1.76 -3.72 4.76 z M324.12000000000006 38.72 l0 1.28 l-11.12 0 l0 -1.28 l0.28 0 c1.64 0 2.24 -0.72 2.24 -2.8 l0 -6.52 c0 -1.8 -0.24 -2.2 -1.44 -2.68 l-1.08 -0.44 l0 -1 l6.56 -2.48 l0.84 0 l0 4.48 l0.08 0 c1.48 -2.88 2.12 -4.04 3.48 -4.04 c0.28 0 0.6 0.04 0.8 0.12 l3.16 1.16 c-0.48 1.68 -1.12 3.12 -1.92 4.24 c-1.24 -0.48 -2.72 -1 -3.24 -1 c-0.8 0 -1.48 0.56 -2.36 1.8 l0 6.48 c0 1.92 0.6 2.68 2.68 2.68 l1.04 0 z M335.92 25.880000000000003 l0 9.68 c0 1.48 0.68 2.12 1.84 2.12 c0.96 0 1.88 -0.6 3.04 -2 l0.56 1.12 c-1.2 2.16 -3.6 3.64 -5.8 3.64 c-2.72 0 -4.52 -1.52 -4.52 -4.96 l0 -9.6 l-2.12 0 l0 -1.04 c2.4 -1 5.12 -3.92 5.84 -6.16 l1.16 0 l0 5 l5.24 0 l-0.6 2.2 l-4.64 0 z"/></g></svg>